<svg xmlns="http://www.w3.org/2000/svg" width="98" height="32" fill="none" viewBox="0 0 99 32">
    <rect width="98" height="32" x=".5" fill="#18181B" rx="6"/>
    <path fill="#FAFAFA" d="M17.736 21.224c-2.814 0-4.578-2.002-4.578-5.18 0-3.206 1.764-5.208 4.578-5.208 2.828 0 4.592 2.002 4.592 5.208 0 3.178-1.764 5.18-4.592 5.18Zm-3.038-5.18c0 2.436 1.078 3.808 3.038 3.808 1.974 0 3.052-1.372 3.052-3.808 0-2.45-1.078-3.836-3.052-3.836-1.96 0-3.038 1.386-3.038 3.836Zm9.149 7.056v-9.52h1.358l.042 1.078c.406-.798 1.176-1.246 2.254-1.246 2.184 0 3.192 1.806 3.192 3.878s-1.008 3.878-3.192 3.878c-1.022 0-1.778-.406-2.198-1.176V23.1h-1.456Zm1.316-5.81c0 1.33.602 2.604 2.002 2.604 1.414 0 1.988-1.26 1.988-2.604 0-1.33-.574-2.604-1.988-2.604-1.414 0-2.002 1.274-2.002 2.604Zm6.793 0c0-2.366 1.386-3.878 3.514-3.878 1.736 0 3.248 1.148 3.332 3.794l.014.504h-5.334c.112 1.386.812 2.198 1.988 2.198.742 0 1.4-.42 1.708-1.134l1.526.112c-.434 1.4-1.736 2.282-3.234 2.282-2.128 0-3.514-1.512-3.514-3.878Zm1.554-.7h3.766c-.196-1.428-.966-1.918-1.806-1.918-1.092 0-1.778.714-1.96 1.918Zm6.975-3.01h1.316l.042 1.26c.392-.994 1.246-1.428 2.268-1.428 1.666 0 2.506 1.204 2.506 2.814V21h-1.456v-4.34c0-1.302-.392-2.016-1.428-2.016-1.106 0-1.792.714-1.792 2.016V21h-1.456v-7.42Zm11.717 0h1.456V21h-1.456v-7.42Zm-.014-1.106V11.06H53.7v1.414h-1.512Zm3.528 1.106h1.316l.042 1.26c.392-.994 1.246-1.428 2.268-1.428 1.666 0 2.506 1.204 2.506 2.814V21h-1.456v-4.34c0-1.302-.392-2.016-1.428-2.016-1.106 0-1.792.714-1.792 2.016V21h-1.456v-7.42Z"/><g clip-path="url(#a)"><path fill="#FAFAFA" fill-rule="evenodd" d="M78.765 13h4.365c.112 0 .222.011.327.033l-4.685 4.734a1.653 1.653 0 0 1-.007-.155V13Zm-.004 0v-1.75h4.369a3.375 3.375 0 0 1 3.375 3.375v4.617H84.76v1.745h-4.37a3.375 3.375 0 0 1-3.375-3.375V13h1.746Zm5.994 6.237v-4.612c0-.128-.015-.252-.043-.372l-4.847 4.898c.165.056.341.086.525.086h4.365Zm-18.09-6.233 6.723 7.692c.732.838 2.112.32 2.112-.793v-6.9h-1.75v5.448l-4.762-5.447h-2.324Z" clip-rule="evenodd"/></g><defs><clipPath id="a"><path fill="#fff" d="M66.5 8h20v16h-20z"/></clipPath></defs>
</svg>